ffmpeg version 4.2.7-0ubuntu0.1 Copyright (c) 2000-2022 the FFmpeg developers
  built with gcc 9 (Ubuntu 9.4.0-1ubuntu1~20.04.1)
  configuration: --prefix=/usr --extra-version=0ubuntu0.1 --toolchain=hardened --libdir=/usr/lib/x86_64-linux-gnu --incdir=/usr/include/x86_64-linux-gnu --arch=amd64 --enable-gpl --disable-stripping --enable-avresample --disable-filter=resample --enable-avisynth --enable-gnutls --enable-ladspa --enable-libaom --enable-libass --enable-libbluray --enable-libbs2b --enable-libcaca --enable-libcdio --enable-libcodec2 --enable-libflite --enable-libfontconfig --enable-libfreetype --enable-libfribidi --enable-libgme --enable-libgsm --enable-libjack --enable-libmp3lame --enable-libmysofa --enable-libopenjpeg --enable-libopenmpt --enable-libopus --enable-libpulse --enable-librsvg --enable-librubberband --enable-libshine --enable-libsnappy --enable-libsoxr --enable-libspeex --enable-libssh --enable-libtheora --enable-libtwolame --enable-libvidstab --enable-libvorbis --enable-libvpx --enable-libwavpack --enable-libwebp --enable-libx265 --enable-libxml2 --enable-libxvid --enable-libzmq --enable-libzvbi --enable-lv2 --enable-omx --enable-openal --enable-opencl --enable-opengl --enable-sdl2 --enable-libdc1394 --enable-libdrm --enable-libiec61883 --enable-nvenc --enable-chromaprint --enable-frei0r --enable-libx264 --enable-shared
  libavutil      56. 31.100 / 56. 31.100
  libavcodec     58. 54.100 / 58. 54.100
  libavformat    58. 29.100 / 58. 29.100
  libavdevice    58.  8.100 / 58.  8.100
  libavfilter     7. 57.100 /  7. 57.100
  libavresample   4.  0.  0 /  4.  0.  0
  libswscale      5.  5.100 /  5.  5.100
  libswresample   3.  5.100 /  3.  5.100
  libpostproc    55.  5.100 / 55.  5.100
Routing option strict to both codec and muxer layer
[h264 @ 0x560ffd9e1e00] Reinit context to 1280x720, pix_fmt: yuv420p
Input #0, mov,mp4,m4a,3gp,3g2,mj2, from '/var/www/html/project/media/video/original/lv_0_20230626164239.mp4':
  Metadata:
    major_brand     : isom
    minor_version   : 512
    compatible_brands: isomiso2avc1mp41
    Hw              : 1
    LvMetaInfo      : {"data":{"ad_type":"","adsTemplateId":"","appVersion":"8.5.1","businessComponentId":"","businessTemplateId":"","capabilityName":"","ccTtVid":"","commercial_params":{"commercial_audio_music_cnt":0,"commercial_sticker_cnt":0,"commercial_text_font_cnt":0,"co
    bitrate         : 9000000
    copyright       : b763aa1b69d627aa748d5688757cdcfe
    maxrate         : 30000000
    te_is_reencode  : 1
    encoder         : bytevehwavc
  Duration: 00:00:10.19, start: 0.000000, bitrate: 8312 kb/s
    Stream #0:0(und): Video: h264 (High), 1 reference frame (avc1 / 0x31637661), yuv420p(tv, bt709, left), 1280x720, 8137 kb/s, 25 fps, 25 tbr, 1000k tbn, 2000k tbc (default)
    Metadata:
      handler_name    : VideoHandler
    Stream #0:1(und): Audio: aac (LC) (mp4a / 0x6134706D), 44100 Hz, stereo, fltp, 194 kb/s (default)
    Metadata:
      handler_name    : SoundHandler
Input #1, png_pipe, from '/var/www/html/project/static/images/templates/logo.png':
  Duration: N/A, bitrate: N/A
    Stream #1:0: Video: png, 1 reference frame, rgba(pc), 1920x1080 [SAR 2835:2835 DAR 16:9], 25 tbr, 25 tbn, 25 tbc
[Parsed_scale_0 @ 0x560ffd9e5fc0] w:1280 h:720 flags:'bilinear' interl:0
[Parsed_scale_2 @ 0x560ffd9f6200] w:1280 h:720 flags:'bilinear' interl:0
Stream mapping:
  Stream #0:0 (h264) -> scale (graph 0)
  Stream #1:0 (png) -> scale (graph 0)
  overlay (graph 0) -> Stream #0:0 (libx264)
  Stream #0:1 -> #0:1 (aac (native) -> aac (native))
Press [q] to stop, [?] for help
[h264 @ 0x560ffdacddc0] Reinit context to 1280x720, pix_fmt: yuv420p
[graph_1_in_0_1 @ 0x560ffdf8bb00] tb:1/44100 samplefmt:fltp samplerate:44100 chlayout:0x3
[Parsed_scale_0 @ 0x560ffe36c900] w:1280 h:720 flags:'bilinear' interl:0
[Parsed_scale_2 @ 0x560ffe3cda80] w:1280 h:720 flags:'bilinear' interl:0
[graph 0 input from stream 0:0 @ 0x560ffe3cff40] w:1280 h:720 pixfmt:yuv420p tb:1/1000000 fr:25/1 sar:0/1 sws_param:flags=2
[graph 0 input from stream 1:0 @ 0x560ffe3d0f00] w:1920 h:1080 pixfmt:rgba tb:1/25 fr:25/1 sar:2835/2835 sws_param:flags=2
[Parsed_scale_0 @ 0x560ffe36c900] w:1280 h:720 fmt:yuv420p sar:0/1 -> w:1280 h:720 fmt:yuv420p sar:0/1 flags:0x2
[Parsed_setsar_1 @ 0x560ffe36c300] w:1280 h:720 sar:0/1 dar:16/9 -> sar:1/1 dar:16/9
[Parsed_scale_2 @ 0x560ffe3cda80] w:1920 h:1080 fmt:rgba sar:2835/2835 -> w:1280 h:720 fmt:yuva420p sar:1/1 flags:0x2
[Parsed_setsar_3 @ 0x560ffe3ce500] w:1280 h:720 sar:1/1 dar:16/9 -> sar:1/1 dar:16/9
[Parsed_overlay_4 @ 0x560ffe3cf100] main w:1280 h:720 fmt:yuv420p overlay w:1280 h:720 fmt:yuva420p
[Parsed_overlay_4 @ 0x560ffe3cf100] [framesync @ 0x560ffe3cf268] Selected 1/1000000 time base
[Parsed_overlay_4 @ 0x560ffe3cf100] [framesync @ 0x560ffe3cf268] Sync level 2
[libx264 @ 0x560ffdacee80] using SAR=1/1
[libx264 @ 0x560ffdacee80] using cpu capabilities: MMX2 SSE2Fast SSSE3 SSE4.2 AVX FMA3 BMI2 AVX2
[libx264 @ 0x560ffdacee80] profile High, level 3.1
[libx264 @ 0x560ffdacee80] 264 - core 155 r2917 0a84d98 - H.264/MPEG-4 AVC codec - Copyleft 2003-2018 - http://www.videolan.org/x264.html - options: cabac=1 ref=1 deblock=1:0:0 analyse=0x3:0x113 me=hex subme=2 psy=1 psy_rd=1.00:0.00 mixed_ref=0 me_range=16 chroma_me=1 trellis=0 8x8dct=1 cqm=0 deadzone=21,11 fast_pskip=1 chroma_qp_offset=0 threads=22 lookahead_threads=5 sliced_threads=0 nr=0 decimate=1 interlaced=0 bluray_compat=0 constrained_intra=0 bframes=3 b_pyramid=2 b_adapt=1 b_bias=0 direct=1 weightb=1 open_gop=0 weightp=1 keyint=250 keyint_min=25 scenecut=40 intra_refresh=0 rc_lookahead=10 rc=crf mbtree=1 crf=18.0 qcomp=0.60 qpmin=0 qpmax=69 qpstep=4 ip_ratio=1.40 aq=1:1.00
Output #0, mp4, to '/var/www/html/project/media/video/watermarks/lv_0_20230626164239.mp4':
  Metadata:
    major_brand     : isom
    minor_version   : 512
    compatible_brands: isomiso2avc1mp41
    Hw              : 1
    LvMetaInfo      : {"data":{"ad_type":"","adsTemplateId":"","appVersion":"8.5.1","businessComponentId":"","businessTemplateId":"","capabilityName":"","ccTtVid":"","commercial_params":{"commercial_audio_music_cnt":0,"commercial_sticker_cnt":0,"commercial_text_font_cnt":0,"co
    bitrate         : 9000000
    copyright       : b763aa1b69d627aa748d5688757cdcfe
    maxrate         : 30000000
    te_is_reencode  : 1
    encoder         : Lavf58.29.100
    Stream #0:0: Video: h264 (libx264), 1 reference frame (avc1 / 0x31637661), yuv420p, 1280x720 [SAR 1:1 DAR 16:9], q=-1--1, 25 fps, 12800 tbn, 25 tbc (default)
    Metadata:
      encoder         : Lavc58.54.100 libx264
    Side data:
      cpb: bitrate max/min/avg: 0/0/0 buffer size: 0 vbv_delay: -1
    Stream #0:1(und): Audio: aac (LC) (mp4a / 0x6134706D), 44100 Hz, stereo, fltp, delay 1024, 128 kb/s (default)
    Metadata:
      handler_name    : SoundHandler
      encoder         : Lavc58.54.100 aac
[Parsed_overlay_4 @ 0x560ffe3cf100] [framesync @ 0x560ffe3cf268] Sync level 0
No more output streams to write to, finishing.
frame=  254 fps= 74 q=-1.0 Lsize=    7995kB time=00:00:10.14 bitrate=6454.6kbits/s speed=2.95x    
[AVIOContext @ 0x560ffd9e00c0] Statistics: 0 seeks, 7 writeouts
video:7826kB audio:159kB subtitle:0kB other streams:0kB global headers:0kB muxing overhead: 0.121769%
Input file #0 (/var/www/html/project/media/video/original/lv_0_20230626164239.mp4):
  Input stream #0:0 (video): 254 packets read (10334916 bytes); 254 frames decoded; 
  Input stream #0:1 (audio): 439 packets read (247908 bytes); 437 frames decoded (447488 samples); 
  Total: 693 packets (10582824 bytes) demuxed
Input file #1 (/var/www/html/project/static/images/templates/logo.png):
  Input stream #1:0 (video): 1 packets read (111578 bytes); 1 frames decoded; 
  Total: 1 packets (111578 bytes) demuxed
Output file #0 (/var/www/html/project/media/video/watermarks/lv_0_20230626164239.mp4):
  Output stream #0:0 (video): 254 frames encoded; 254 packets muxed (8014116 bytes); 
  Output stream #0:1 (audio): 437 frames encoded (447488 samples); 438 packets muxed (162815 bytes); 
  Total: 692 packets (8176931 bytes) muxed
[AVIOContext @ 0x560ffda8f4c0] Statistics: 2 seeks, 35 writeouts
[libx264 @ 0x560ffdacee80] frame I:3     Avg QP:16.82  size:137736
[libx264 @ 0x560ffdacee80] frame P:65    Avg QP:19.07  size: 62064
[libx264 @ 0x560ffdacee80] frame B:186   Avg QP:21.22  size: 19172
[libx264 @ 0x560ffdacee80] consecutive B-frames:  1.2%  3.1%  1.2% 94.5%
[libx264 @ 0x560ffdacee80] mb I  I16..4: 15.5% 24.4% 60.1%
[libx264 @ 0x560ffdacee80] mb P  I16..4:  9.8% 18.9%  4.5%  P16..4: 31.4% 17.8% 15.7%  0.0%  0.0%    skip: 1.9%
[libx264 @ 0x560ffdacee80] mb B  I16..4:  4.6%  4.6%  0.3%  B16..8: 26.5% 12.8%  2.7%  direct:20.6%  skip:28.0%  L0:37.0% L1:35.2% BI:27.8%
[libx264 @ 0x560ffdacee80] 8x8 transform intra:50.9% inter:45.5%
[libx264 @ 0x560ffdacee80] coded y,uvDC,uvAC intra: 63.7% 69.9% 27.2% inter: 30.8% 25.1% 1.2%
[libx264 @ 0x560ffdacee80] i16 v,h,dc,p: 24% 28% 35% 13%
[libx264 @ 0x560ffdacee80] i8 v,h,dc,ddl,ddr,vr,hd,vl,hu: 22% 24% 32%  3%  4%  3%  4%  5%  4%
[libx264 @ 0x560ffdacee80] i4 v,h,dc,ddl,ddr,vr,hd,vl,hu: 23% 23% 16%  5%  8%  5%  7%  6%  6%
[libx264 @ 0x560ffdacee80] i8c dc,h,v,p: 48% 25% 22%  5%
[libx264 @ 0x560ffdacee80] Weighted P-Frames: Y:21.5% UV:3.1%
[libx264 @ 0x560ffdacee80] kb/s:6309.79
[aac @ 0x560ffdacb880] Qavg: 156.284
[AVIOContext @ 0x560ffd9e9040] Statistics: 10634432 bytes read, 2 seeks
[AVIOContext @ 0x560ffd9f4a40] Statistics: 111578 bytes read, 0 seeks
